<svg width="40" height="39" viewBox="0 0 40 39" fill="none" xmlns="http://www.w3.org/2000/svg">
<path fill-rule="evenodd" clip-rule="evenodd" d="M20.4266 0.97655L15.1735 15.2948L17.6115 18.3861L20.4872 10.668L20.4266 0.97655ZM39.5942 15.5036L24.9662 15.544L22.7302 18.4467L33.4453 18.4063L39.5942 15.5036Z" fill="#B70E0C"/>
<path fill-rule="evenodd" clip-rule="evenodd" d="M24.9657 15.544L20.4265 0.976551L20.4871 10.668L22.7298 18.4467L24.9657 15.544ZM5.37439 18.4803L17.6116 18.3861L15.544 15.3621L0 15.5507L5.37439 18.4803Z" fill="#E30613"/>
<path fill-rule="evenodd" clip-rule="evenodd" d="M13.6918 21.9892L7.87292 38.5771L13.7457 30.7579L16.4127 23.0331L13.6918 21.9892ZM26.9863 30.7781L20.4603 25.9897L20.3862 29.6803L32.556 38.604L26.9863 30.7781Z" fill="#005CA9"/>
<path fill-rule="evenodd" clip-rule="evenodd" d="M26.9864 30.7781L32.5561 38.604L27.3433 21.612L24.609 23.0331L26.9864 30.7781ZM20.4603 25.9897L13.7457 30.7579L7.87292 38.577L20.3862 29.6803L20.4603 25.9897Z" fill="#0075BF"/>
</svg>
