<svg width="136" height="50" viewBox="0 0 136 50" fill="none" xmlns="http://www.w3.org/2000/svg">
<path fill-rule="evenodd" clip-rule="evenodd" d="M24.7621 1.18381L18.394 18.541L21.3495 22.2884L24.8356 12.9321L24.7621 1.18381ZM47.9976 18.7941L30.2648 18.843L27.5543 22.3618L40.5436 22.3128L47.9976 18.7941Z" fill="#B70E0C"/>
<path fill-rule="evenodd" clip-rule="evenodd" d="M30.2648 18.8431L24.7621 1.18382L24.8356 12.9321L27.5542 22.3618L30.2648 18.8431ZM6.51506 22.4027L21.3495 22.2884L18.843 18.6226L0 18.8512L6.51506 22.4027Z" fill="#E30613"/>
<path fill-rule="evenodd" clip-rule="evenodd" d="M16.5978 26.6562L9.54395 46.7647L16.6632 37.2861L19.8962 27.9217L16.5978 26.6562ZM32.7141 37.3105L24.803 31.5058L24.7132 35.9798L39.4659 46.7974L32.7141 37.3105Z" fill="#005CA9"/>
<path fill-rule="evenodd" clip-rule="evenodd" d="M32.7141 37.3105L39.4659 46.7974L33.1468 26.199L29.8321 27.9217L32.7141 37.3105ZM24.8029 31.5058L16.6632 37.286L9.54395 46.7647L24.7131 35.9798L24.8029 31.5058Z" fill="#0075BF"/>
<path fill-rule="evenodd" clip-rule="evenodd" d="M62.9951 25.2112H59.9335L56.1372 18.8594H54.7411V25.2112H52.2592V10.0747H54.7411V16.4509H56.1372L59.9335 10.0747H62.9788L58.1864 17.6429L62.9951 25.2112ZM72.1227 16.3856V13.1118C72.1227 12.8178 72.0819 12.6382 72.0084 12.5811C71.935 12.5158 71.7554 12.4831 71.4778 12.4831H66.9793V16.9898H71.4778C71.7635 16.9898 71.9513 16.9653 72.0166 16.9081C72.0901 16.851 72.1227 16.6795 72.1227 16.3856ZM66.9793 25.2112H64.4892V10.0747H72.3268C73.1514 10.0747 73.7474 10.2216 74.0903 10.5155C74.4332 10.8094 74.6128 11.4054 74.6128 12.2953V17.1775C74.6128 18.0756 74.4414 18.6634 74.0903 18.9573C73.7474 19.2513 73.1596 19.3982 72.3268 19.3982H66.9793V25.2112ZM80.679 13.373L82.2792 19.7819H79.0706L80.679 13.373ZM83.6344 25.2112H86.1898L82.369 10.0747H78.8584L75.0293 25.2112H77.7154L78.442 22.2965H82.9078L83.6344 25.2112ZM96.0194 25.2112H90.2555C89.4227 25.2112 88.8349 25.0642 88.492 24.7703C88.1491 24.4764 87.9777 23.8804 87.9777 22.9905V12.2953C87.9777 11.4054 88.1491 10.8094 88.492 10.5155C88.8349 10.2216 89.4227 10.0747 90.2555 10.0747H96.0194C96.8522 10.0747 97.4319 10.2216 97.7829 10.5155C98.1258 10.8094 98.2973 11.4054 98.2973 12.2953V14.5813H95.8072V13.1118C95.8072 12.8178 95.7663 12.6382 95.6929 12.5811C95.6194 12.5158 95.4398 12.4831 95.1622 12.4831H91.0964C90.8188 12.4831 90.6392 12.5158 90.5657 12.5811C90.4923 12.6464 90.4514 12.826 90.4514 13.1118V22.1741C90.4514 22.468 90.4923 22.6476 90.5657 22.7047C90.6392 22.77 90.8188 22.8027 91.0964 22.8027H95.1622C95.4479 22.8027 95.6357 22.7782 95.701 22.7211C95.7663 22.6639 95.8072 22.4925 95.8072 22.1986V20.7127H98.2973V22.9986C98.2973 23.8885 98.1258 24.4845 97.7829 24.7784C97.4319 25.0642 96.844 25.2112 96.0194 25.2112ZM109.041 25.2112H111.531V10.0747H109.041V16.4264H103.09V10.0747H100.6V25.2112H103.09V18.8431H109.041V25.2112ZM120.479 19.7819L118.879 13.373L117.271 19.7819H120.479ZM124.39 25.2112H121.835L121.108 22.2965H116.642L115.907 25.2112H113.23L117.059 10.0747H120.569L124.39 25.2112ZM133.289 12.4831V16.9816H128.791C128.497 16.9816 128.317 16.9571 128.252 16.9C128.178 16.851 128.146 16.6714 128.146 16.3774V13.1118C128.146 12.8178 128.187 12.6382 128.26 12.5729C128.334 12.5158 128.513 12.4831 128.791 12.4831H133.289ZM133.289 25.2111H135.771V10.0828H127.933C127.101 10.0828 126.513 10.2298 126.17 10.5237C125.827 10.8176 125.656 11.4054 125.656 12.3035V17.1857C125.656 18.0756 125.827 18.6716 126.17 18.9655C126.513 19.2594 127.101 19.4064 127.933 19.4064H128.929L125.713 25.2111H128.309L131.526 19.4064H133.289V25.2111Z" fill="#E30613"/>
<path fill-rule="evenodd" clip-rule="evenodd" d="M54.5125 46.4055H60.1131C60.9377 46.4055 61.5255 46.2667 61.8766 45.9728C62.2195 45.6789 62.391 45.0911 62.391 44.2012V40.9355C62.391 39.8904 62.1297 39.2373 61.5909 38.976C62.1215 38.6821 62.391 38.029 62.391 37.0003V33.5877C62.391 32.6978 62.2195 32.1099 61.8766 31.816C61.5337 31.5303 60.9541 31.3833 60.1295 31.3833H54.5288C53.7042 31.3833 53.1246 31.5221 52.7817 31.816C52.4388 32.1099 52.2673 32.6978 52.2673 33.5877V35.8736H54.7329V34.3959C54.7329 34.102 54.7737 33.9305 54.8472 33.8652C54.9207 33.8081 55.0921 33.7754 55.3697 33.7754H59.2804C59.558 33.7754 59.7294 33.7999 59.8029 33.8652C59.8764 33.9305 59.9172 34.102 59.9172 34.3959V37.0983C59.9172 37.3922 59.8764 37.5636 59.8111 37.6208C59.7376 37.6779 59.558 37.7024 59.2722 37.7024H56.4556V40.0945H59.2722C59.5498 40.0945 59.7212 40.119 59.7947 40.1844C59.8682 40.2497 59.909 40.4211 59.909 40.715V43.4011C59.909 43.695 59.8682 43.8664 59.8029 43.9236C59.7294 43.9807 59.5498 44.0052 59.2641 44.0052H55.3534C55.0595 44.0052 54.888 43.9807 54.8145 43.9236C54.7492 43.8664 54.7166 43.695 54.7166 43.4011V41.907H52.251V44.193C52.251 45.0829 52.4224 45.6707 52.7653 45.9646C53.1082 46.2585 53.6879 46.4055 54.5125 46.4055ZM74.6455 40.7232V43.4092C74.6455 43.7031 74.6129 43.8746 74.5476 43.9317C74.4741 43.9889 74.2945 44.0134 74.0087 44.0134H69.5266V40.1027H74.0087C74.2781 40.1027 74.4578 40.1272 74.5312 40.1925C74.6129 40.2578 74.6455 40.4293 74.6455 40.7232ZM74.6455 34.4041V37.1064C74.6455 37.4003 74.6129 37.5718 74.5476 37.6371C74.4741 37.6943 74.2945 37.7188 74.0087 37.7188H69.5266V33.7836H74.0087C74.2781 33.7836 74.4578 33.8081 74.5312 33.8734C74.6129 33.9387 74.6455 34.1102 74.6455 34.4041ZM67.0528 46.4055H74.8496C75.6742 46.4055 76.2539 46.2667 76.5968 45.981C76.9397 45.687 77.1111 45.0992 77.1111 44.2093V40.9436C77.1111 39.8986 76.8499 39.2455 76.311 38.9842C76.8417 38.6903 77.1111 38.0372 77.1111 37.0085V33.5958C77.1111 32.7059 76.9397 32.1181 76.5968 31.8242C76.2539 31.5303 75.6742 31.3833 74.8496 31.3833H67.0528V46.4055ZM91.0474 46.4055H81.7892V31.3915H91.0474V33.7836H84.2548V37.6943H89.7085V40.0864H84.2548V44.0134H91.0474V46.4055ZM97.0972 46.4055H102.69C103.514 46.4055 104.102 46.2667 104.445 45.9728C104.788 45.6789 104.959 45.0911 104.959 44.2012V40.9355C104.959 39.8904 104.698 39.2373 104.159 38.976C104.69 38.6821 104.959 38.029 104.959 37.0003V33.5877C104.959 32.6977 104.788 32.1099 104.445 31.816C104.102 31.5303 103.522 31.3833 102.698 31.3833H97.1054C96.2808 31.3833 95.7012 31.5221 95.3583 31.816C95.0154 32.1099 94.8439 32.6977 94.8439 33.5877V35.8736H97.3095V34.3959C97.3095 34.102 97.3503 33.9305 97.4238 33.8652C97.4973 33.8081 97.6687 33.7754 97.9463 33.7754H101.857C102.126 33.7754 102.306 33.7999 102.38 33.8652C102.461 33.9305 102.494 34.102 102.494 34.3959V37.0983C102.494 37.3922 102.453 37.5636 102.388 37.6208C102.322 37.6779 102.143 37.7024 101.857 37.7024H99.0403V40.0945H101.857C102.126 40.0945 102.306 40.119 102.38 40.1844C102.461 40.2497 102.494 40.4211 102.494 40.715V43.4011C102.494 43.695 102.453 43.8664 102.388 43.9236C102.322 43.9807 102.143 44.0052 101.857 44.0052H97.9463C97.6524 44.0052 97.4728 43.9807 97.4075 43.9236C97.334 43.8664 97.3014 43.695 97.3014 43.4011V41.907H94.8358V44.193C94.8358 45.0829 95.0072 45.6707 95.3501 45.9646C95.693 46.2585 96.2727 46.4055 97.0972 46.4055ZM117.94 44.0134V33.7754H113.752L112.56 42.7153C112.495 43.3276 112.421 43.7603 112.323 44.0134H117.94ZM121.745 49.2956H119.279V46.4055H110.903V49.2956H108.437V44.0134H109.115C109.335 44.0134 109.515 43.9889 109.654 43.9399C109.793 43.8909 109.89 43.8093 109.964 43.695C110.029 43.5807 110.078 43.4745 110.095 43.3929C110.112 43.3342 110.126 43.2417 110.144 43.1154L110.144 43.115C110.151 43.0658 110.159 43.0115 110.168 42.952L111.629 31.3833H120.414V44.0134H121.753V49.2956H121.745ZM130.293 34.6572L131.877 41.0171H128.701L130.293 34.6572ZM133.224 46.4055H135.755L131.967 31.3833H128.48L124.684 46.4055H127.346L128.072 43.5154H132.505L133.224 46.4055Z" fill="#005CA9"/>
<path fill-rule="evenodd" clip-rule="evenodd" d="M80.7441 4.31888V1.83695C80.7441 1.72265 80.7197 1.63285 80.6788 1.5757C80.6298 1.51855 80.54 1.49405 80.4013 1.49405H79.6991V4.66178H80.4013C80.54 4.66178 80.6298 4.62912 80.6788 4.57197C80.7197 4.52298 80.7441 4.43318 80.7441 4.31888ZM79.3562 4.66178V1.49405H78.6214C78.4827 1.49405 78.3928 1.51855 78.3439 1.5757C78.2949 1.63285 78.2785 1.72265 78.2785 1.83695V4.31888C78.2785 4.43318 78.303 4.52298 78.3439 4.58013C78.3928 4.63728 78.4827 4.66994 78.6214 4.66994H79.3562V4.66178ZM79.6991 6.35177H79.3562V4.97202H78.6786C78.4092 4.97202 78.2132 4.92303 78.0989 4.82506C77.9846 4.72709 77.9275 4.53115 77.9275 4.23724V1.91859C77.9275 1.62468 77.9846 1.42874 78.0989 1.33077C78.2132 1.2328 78.401 1.18381 78.6786 1.18381H79.3562V0H79.6991V1.18381H80.3359C80.6054 1.18381 80.8013 1.2328 80.9156 1.33077C81.0299 1.42874 81.087 1.62468 81.087 1.91859V4.2454C81.087 4.53931 81.0299 4.73526 80.9156 4.83323C80.8013 4.9312 80.6135 4.98018 80.3359 4.98018H79.6991V6.35177ZM59.0517 4.31888V1.83695C59.0517 1.72265 59.0272 1.63285 58.9864 1.5757C58.9374 1.51855 58.8476 1.48589 58.7088 1.48589H56.929C56.7902 1.48589 56.6923 1.51855 56.6514 1.5757C56.6025 1.63285 56.5861 1.72265 56.5861 1.83695V4.31888C56.5861 4.43318 56.6106 4.52298 56.6514 4.58013C56.7004 4.63728 56.7902 4.66994 56.929 4.66994H58.7088C58.8476 4.66994 58.9456 4.64545 58.9864 4.58013C59.0272 4.51482 59.0517 4.43318 59.0517 4.31888ZM58.6435 4.97202H56.9862C56.7168 4.97202 56.5208 4.92303 56.4065 4.82506C56.2922 4.72709 56.2351 4.53115 56.2351 4.23724V1.91043C56.2351 1.61652 56.2922 1.42058 56.4065 1.3226C56.5208 1.22463 56.7168 1.17565 56.9862 1.17565H58.6435C58.9129 1.17565 59.1089 1.22463 59.2232 1.3226C59.3375 1.42058 59.3946 1.61652 59.3946 1.91043V4.2454C59.3946 4.53931 59.3375 4.73525 59.2232 4.83322C59.1089 4.92303 58.9129 4.97202 58.6435 4.97202ZM55.4105 4.97202H55.0676V1.49406H52.5939V4.97202H52.2592V1.18381H55.4105V4.97202ZM62.8564 4.97202H63.1993H63.2074V1.17565H60.701L60.2928 4.31071C60.2765 4.42501 60.2438 4.51482 60.1948 4.57197C60.1458 4.63728 60.0642 4.66178 59.9417 4.66178H59.8438V4.96385H59.8683C60.1295 4.96385 60.301 4.92303 60.3989 4.82506C60.4969 4.73525 60.5622 4.53931 60.603 4.23724L60.9786 1.49405H62.8564V4.97202ZM66.5221 4.97202H66.1792V1.75531L64.4728 4.97202H64.0483V1.18381H64.383V4.43318L66.1057 1.18381H66.5221V4.97202ZM67.363 4.97202H67.7059V1.49406H69.6163V1.18381H67.363V4.97202ZM72.8901 4.31888V1.83695C72.8901 1.72265 72.8657 1.63285 72.8248 1.5757C72.7758 1.51855 72.686 1.48589 72.5472 1.48589H70.7674C70.6287 1.48589 70.5307 1.51855 70.4899 1.5757C70.4409 1.63285 70.4246 1.72265 70.4246 1.83695V4.66178H72.5472C72.686 4.66178 72.784 4.63728 72.8248 4.57197C72.8657 4.51482 72.8901 4.43318 72.8901 4.31888ZM72.4819 4.97202H70.4164V6.35177H70.0735V1.91043C70.0735 1.61652 70.1306 1.42058 70.2449 1.3226C70.3592 1.22463 70.547 1.17565 70.8246 1.17565H72.4819C72.7514 1.17565 72.9473 1.22463 73.0616 1.3226C73.1759 1.42058 73.233 1.61652 73.233 1.91043V4.2454C73.233 4.53931 73.1759 4.73525 73.0616 4.83322C72.9473 4.92303 72.7514 4.97202 72.4819 4.97202ZM76.7761 2.91463V4.31888C76.7761 4.43318 76.7516 4.51482 76.7108 4.5883C76.67 4.65361 76.572 4.67811 76.4332 4.67811H74.6534C74.5146 4.67811 74.4248 4.64545 74.3758 4.5883C74.335 4.53115 74.3105 4.44134 74.3105 4.32704V3.26569C74.3105 3.15139 74.3269 3.06159 74.3758 3.00444C74.4167 2.93912 74.5146 2.91463 74.6534 2.91463H76.7761ZM74.7106 4.97202H76.3679C76.6373 4.97202 76.8333 4.92303 76.9476 4.83323C77.0619 4.73526 77.119 4.53931 77.119 4.2454V1.9186C77.119 1.62468 77.0619 1.42874 76.9476 1.33077C76.8333 1.2328 76.6373 1.18381 76.3679 1.18381H74.0411V1.48589H76.4332C76.572 1.48589 76.6618 1.51855 76.7108 1.5757C76.7516 1.63285 76.7761 1.72265 76.7761 1.83695V2.59623H74.7106C74.433 2.59623 74.2452 2.64521 74.1309 2.74318C74.0166 2.84115 73.9595 3.0371 73.9595 3.33101V4.23724C73.9595 4.53115 74.0166 4.72709 74.1309 4.82506C74.2452 4.92303 74.433 4.97202 74.7106 4.97202ZM84.0506 4.97202H84.3935V1.18381H83.9771L82.2626 4.43318V1.18381H81.9197V4.97202H82.3442L84.0506 1.75531V4.97202ZM87.994 4.97202H87.6511V3.55961H85.8631C85.5855 3.55961 85.3978 3.51062 85.2835 3.41265C85.1692 3.31468 85.112 3.11874 85.112 2.82483V1.18381H85.4549V2.90647C85.4549 3.02077 85.4794 3.11057 85.5202 3.16772C85.5692 3.22487 85.659 3.25753 85.7978 3.25753H87.6511V1.18381H87.994V4.97202ZM91.6352 1.83695V2.84932C91.6352 2.96362 91.6107 3.05342 91.5699 3.10241C91.529 3.15956 91.4311 3.19221 91.2923 3.19221H89.1696V1.83695C89.1696 1.72265 89.1859 1.63285 89.2349 1.5757C89.2757 1.51855 89.3737 1.48589 89.5125 1.48589H91.2923C91.4311 1.48589 91.5209 1.51855 91.5699 1.5757C91.6107 1.63285 91.6352 1.72265 91.6352 1.83695ZM89.5778 4.97202H91.8311V4.66994H89.5125C89.3737 4.66994 89.2839 4.63728 89.2349 4.58013C89.1941 4.52298 89.1696 4.43318 89.1696 4.31888V3.51062H91.2351C91.5045 3.51062 91.7005 3.46163 91.8148 3.36366C91.9291 3.26569 91.9862 3.06975 91.9862 2.77584V1.91043C91.9862 1.61652 91.9291 1.42058 91.8148 1.3226C91.7005 1.22463 91.5045 1.17565 91.2351 1.17565H89.5778C89.3084 1.17565 89.1124 1.22463 88.9981 1.3226C88.8838 1.42058 88.8267 1.61652 88.8267 1.91043V4.23724C88.8267 4.53115 88.8838 4.72709 88.9981 4.82506C89.1124 4.92303 89.3084 4.97202 89.5778 4.97202ZM95.4971 4.97202H93.4479C93.1784 4.97202 92.9825 4.92303 92.8682 4.82506C92.7539 4.72709 92.6968 4.53115 92.6968 4.23724V1.91043C92.6968 1.61652 92.7539 1.42058 92.8682 1.3226C92.9825 1.22463 93.1784 1.17565 93.4479 1.17565H95.4971V1.48589H93.3825C93.2438 1.48589 93.1458 1.51855 93.105 1.5757C93.056 1.63285 93.0396 1.72265 93.0396 1.83695V4.31888C93.0396 4.43318 93.0641 4.52298 93.105 4.58013C93.1539 4.63728 93.2438 4.66994 93.3825 4.66994H95.4971V4.97202ZM98.2156 4.97202H98.5912L97.4482 3.09424L98.6157 1.18381H98.2401L97.1706 2.93912H96.4685V1.18381H96.1256V4.97202H96.4685V3.24937H97.1869L98.2156 4.97202ZM101.612 4.97202H101.277V1.75531L99.5709 4.97202H99.1463V1.18381H99.4811V4.43318L101.204 1.18381H101.612V4.97202ZM104.575 0.138793H104.29C104.257 0.28575 104.184 0.424542 104.077 0.538841C103.963 0.661304 103.841 0.718454 103.71 0.718454C103.571 0.718454 103.449 0.65314 103.335 0.538841C103.22 0.424542 103.147 0.28575 103.114 0.138793H102.82C102.861 0.38372 102.959 0.579662 103.122 0.742947C103.286 0.898067 103.473 0.97971 103.702 0.97971C103.939 0.97971 104.135 0.898067 104.29 0.734782C104.445 0.571498 104.543 0.375556 104.575 0.138793ZM104.592 4.97202H104.935V1.18382H104.518L102.804 4.43318V1.18382H102.461V4.97202H102.885L104.592 1.75531V4.97202ZM109.621 4.97202H109.246L108.209 3.24937H107.49V4.97202H107.155V1.18381H107.49V2.93912H108.2L109.27 1.18381H109.646L108.478 3.09424L109.621 4.97202ZM112.928 1.83695V4.31888C112.928 4.43318 112.903 4.51482 112.862 4.58013C112.821 4.64545 112.723 4.66994 112.585 4.66994H110.805C110.666 4.66994 110.576 4.63728 110.527 4.58013C110.486 4.52298 110.462 4.43318 110.462 4.31888V1.83695C110.462 1.72265 110.478 1.63285 110.527 1.5757C110.568 1.51855 110.666 1.48589 110.805 1.48589H112.585C112.723 1.48589 112.813 1.51855 112.862 1.5757C112.903 1.63285 112.928 1.72265 112.928 1.83695ZM110.862 4.97202H112.519C112.789 4.97202 112.985 4.92303 113.099 4.83322C113.213 4.73525 113.27 4.53931 113.27 4.2454V1.91043C113.27 1.61652 113.213 1.42058 113.099 1.3226C112.985 1.22463 112.789 1.17565 112.519 1.17565H110.862C110.584 1.17565 110.397 1.22463 110.282 1.3226C110.168 1.42058 110.111 1.61652 110.111 1.91043V4.23724C110.111 4.53115 110.168 4.72709 110.282 4.82506C110.397 4.92303 110.584 4.97202 110.862 4.97202ZM117.205 4.97202H116.863V1.62468L115.858 4.97202H115.516L114.438 1.60835V4.97202H114.103V1.18381H114.56L115.654 4.474L116.667 1.18381H117.205V4.97202ZM120.863 4.97202H121.206V1.18381H118.047V4.97202H118.389V1.49406H120.863V4.97202ZM125.027 4.97202H124.684V1.49405H122.806L122.431 4.23724C122.39 4.53931 122.325 4.73525 122.227 4.82506C122.129 4.92303 121.957 4.96385 121.696 4.96385H121.663V4.66178H121.761C121.876 4.66178 121.965 4.63728 122.014 4.57197C122.063 4.51482 122.096 4.42501 122.112 4.31071L122.521 1.17565H125.027V4.97202ZM128.668 1.83695V2.84932C128.668 2.96362 128.644 3.05342 128.603 3.10241C128.562 3.15956 128.464 3.19221 128.325 3.19221H126.203V1.83695C126.203 1.72265 126.219 1.63285 126.268 1.5757C126.309 1.51855 126.407 1.48589 126.546 1.48589H128.325C128.464 1.48589 128.554 1.51855 128.603 1.5757C128.644 1.63285 128.668 1.72265 128.668 1.83695ZM126.603 4.97202H128.856V4.66994H126.537C126.399 4.66994 126.309 4.63728 126.26 4.58013C126.219 4.52298 126.195 4.43318 126.195 4.31888V3.51062H128.26C128.538 3.51062 128.725 3.46163 128.84 3.36366C128.954 3.26569 129.011 3.06975 129.011 2.77584V1.91043C129.011 1.61652 128.954 1.42058 128.84 1.3226C128.725 1.22463 128.538 1.17565 128.26 1.17565H126.603C126.333 1.17565 126.137 1.22463 126.023 1.3226C125.909 1.42058 125.852 1.61652 125.852 1.91043V4.23724C125.852 4.53115 125.909 4.72709 126.023 4.82506C126.137 4.92303 126.333 4.97202 126.603 4.97202ZM132.211 4.97202H131.836L130.807 3.24937H130.089V4.97202H129.746V1.18381H130.089V2.93912H130.791L131.86 1.18381H132.236L131.068 3.09424L132.211 4.97202ZM133.461 4.97202H135.51V4.66994H133.395C133.257 4.66994 133.167 4.63728 133.118 4.58013C133.077 4.52298 133.052 4.43318 133.052 4.31888V1.83695C133.052 1.72265 133.069 1.63285 133.118 1.5757C133.159 1.51855 133.257 1.48589 133.395 1.48589H135.51V1.17565H133.461C133.183 1.17565 132.995 1.22463 132.881 1.3226C132.767 1.42058 132.71 1.61652 132.71 1.91043V4.23724C132.71 4.53115 132.767 4.72709 132.881 4.82506C132.995 4.92303 133.183 4.97202 133.461 4.97202Z" fill="#005CA9"/>
</svg>
